<svg width="27" height="30" viewBox="0 0 27 30" fill="none" xmlns="http://www.w3.org/2000/svg">
<path d="M23.3333 3.41667H21.875V0.5H18.9583V3.41667H7.29167V0.5H4.375V3.41667H2.91667C1.29792 3.41667 0.0145833 4.72917 0.0145833 6.33333L0 26.75C0 28.3542 1.29792 29.6667 2.91667 29.6667H23.3333C24.9375 29.6667 26.25 28.3542 26.25 26.75V6.33333C26.25 4.72917 24.9375 3.41667 23.3333 3.41667ZM23.3333 26.75H2.91667V12.1667H23.3333V26.75ZM8.75 18H5.83333V15.0833H8.75V18ZM14.5833 18H11.6667V15.0833H14.5833V18ZM20.4167 18H17.5V15.0833H20.4167V18ZM8.75 23.8333H5.83333V20.9167H8.75V23.8333ZM14.5833 23.8333H11.6667V20.9167H14.5833V23.8333ZM20.4167 23.8333H17.5V20.9167H20.4167V23.8333Z" fill="#F2F4F3"/>
</svg>
