<svg width="44" height="44" viewBox="0 0 44 44" fill="none" xmlns="http://www.w3.org/2000/svg">
<circle cx="22" cy="22" r="22" fill="#808080"/>
<path d="M20.1809 30.9331C22.5665 30.9327 24.8834 30.134 26.7626 28.6644L32.671 34.5728L34.5714 32.6723L28.6631 26.7639C30.1334 24.8845 30.9326 22.5671 30.9331 20.1809C30.9331 14.2523 26.1094 9.42859 20.1809 9.42859C14.2523 9.42859 9.42859 14.2523 9.42859 20.1809C9.42859 26.1094 14.2523 30.9331 20.1809 30.9331ZM20.1809 12.1167C24.6283 12.1167 28.2451 15.7335 28.2451 20.1809C28.2451 24.6283 24.6283 28.2451 20.1809 28.2451C15.7335 28.2451 12.1167 24.6283 12.1167 20.1809C12.1167 15.7335 15.7335 12.1167 20.1809 12.1167Z" fill="#F2EDED"/>
</svg>
