<svg width="34" height="44" viewBox="0 0 34 44" fill="none" xmlns="http://www.w3.org/2000/svg">
<path d="M29.3333 14.6667H27.2381V10.4762C27.2381 4.69333 22.5448 0 16.7619 0C10.979 0 6.28571 4.69333 6.28571 10.4762V14.6667H4.19048C1.88571 14.6667 0 16.5524 0 18.8571V39.8095C0 42.1143 1.88571 44 4.19048 44H29.3333C31.6381 44 33.5238 42.1143 33.5238 39.8095V18.8571C33.5238 16.5524 31.6381 14.6667 29.3333 14.6667ZM16.7619 33.5238C14.4571 33.5238 12.5714 31.6381 12.5714 29.3333C12.5714 27.0286 14.4571 25.1429 16.7619 25.1429C19.0667 25.1429 20.9524 27.0286 20.9524 29.3333C20.9524 31.6381 19.0667 33.5238 16.7619 33.5238ZM23.2571 14.6667H10.2667V10.4762C10.2667 6.89333 13.179 3.98095 16.7619 3.98095C20.3448 3.98095 23.2571 6.89333 23.2571 10.4762V14.6667Z" fill="#F2EDED"/>
</svg>
