<svg width="41" height="41" viewBox="0 0 41 41" fill="none" xmlns="http://www.w3.org/2000/svg">
<path d="M40.6055 19.4556V3.64774C40.6055 3.33212 40.4156 3.04618 40.1234 2.92587C39.8313 2.80477 39.4953 2.87196 39.2719 3.0954L35.5 6.86727C31.7133 2.60868 26.0227 0.0914931 20.3125 0.00555556C20.3125 0.00555556 19.7281 -0.00694444 19.4734 0.00555556H3.59688C3.28047 0.00555556 2.99531 0.196181 2.875 0.488368C2.75391 0.780556 2.82188 1.11727 3.04609 1.34071L6.83359 5.11102C2.47969 8.96649 0 14.4423 0 20.2688C0 20.2923 0.0203125 36.9892 0.0203125 36.9892C0.0203125 37.3048 0.210156 37.5907 0.502344 37.711C0.795313 37.8321 1.13047 37.7649 1.35391 37.5415L5.12578 33.7696C8.98125 38.1056 14.4563 40.5743 20.2828 40.5743C26.0883 40.5743 31.6258 38.0798 35.475 33.7298C36.2906 32.8079 36.2492 31.4001 35.382 30.5235L30.5523 25.6438C30.0891 25.1759 29.4305 24.9376 28.7914 24.9563C28.118 24.9884 27.4836 25.3095 27.0516 25.8376C26.5461 26.4548 25.9594 26.9985 25.275 27.4798C24.1328 28.3712 23.1789 28.9173 19.6523 28.9907C17.1688 28.7946 14.868 27.5095 13.3836 25.5141L17.9937 20.904C18.2172 20.6806 18.2844 20.3431 18.1625 20.0509C18.0414 19.7602 17.7563 19.5704 17.4414 19.5704H17.4383C15.3203 19.5782 13.3852 19.5845 11.6336 19.5884C11.843 17.1243 13.1297 14.8431 15.1227 13.3681L19.7555 17.9821C19.9789 18.2048 20.3156 18.2696 20.6086 18.1493C20.9 18.0274 21.0898 17.7415 21.0883 17.4251C21.0812 15.6102 21.0742 13.6274 21.0703 11.661C23.5156 11.8829 25.7758 13.1563 27.2406 15.1243L22.6305 19.7345C22.407 19.9579 22.3398 20.2954 22.4617 20.5876C22.5828 20.8782 22.868 21.0681 23.1828 21.0681H23.1859C31.7289 21.0352 37.3109 21.036 39.7828 21.0704C39.8023 21.072 39.8227 21.0727 39.843 21.0727H39.8453C40.2766 21.0712 40.6258 20.7212 40.6242 20.2891C40.6242 19.9977 40.6172 19.7087 40.6055 19.4556ZM11.8195 24.8681C11.5602 25.1266 11.5156 25.5313 11.7125 25.8399C13.432 28.5368 16.3539 30.2962 19.6063 30.5493C23.6859 30.4688 24.8797 29.7688 26.2039 28.7345C26.9727 28.1962 27.6648 27.554 28.2617 26.8267C28.4133 26.6407 28.6344 26.5274 28.8648 26.5173C29.0914 26.5056 29.2875 26.5868 29.4414 26.7423L34.2711 31.622C34.5617 31.9157 34.5773 32.3868 34.3047 32.6938C30.7508 36.7095 25.6398 39.0118 20.2828 39.0118C14.6391 39.0118 9.35234 36.5016 5.77656 32.1251C5.63672 31.954 5.43125 31.8501 5.21016 31.8391C5.19687 31.8384 5.18438 31.8384 5.17109 31.8384C4.96406 31.8384 4.76484 31.9196 4.61875 32.0673L1.58203 35.104V21.1477C1.58203 21.1446 1.58203 21.1415 1.58125 21.1376C4.12031 21.161 8.80547 21.1626 15.5492 21.1384L11.8195 24.8681ZM19.5195 15.5399L15.7672 11.8032C15.5078 11.5462 15.1047 11.5024 14.7969 11.697C12.1172 13.3985 10.3586 16.2766 10.0781 19.4141C10.0617 19.4681 10.0531 19.5321 10.0406 19.5907C6.17812 19.597 3.35078 19.5915 1.58203 19.5751C1.77969 14.1946 4.26406 9.19149 8.47969 5.76337C8.65156 5.62352 8.75625 5.41806 8.76719 5.19618C8.77812 4.97587 8.69453 4.75946 8.5375 4.60321L5.48906 1.56806L19.5078 1.56727C19.5125 1.56727 19.5172 1.56649 19.5219 1.56649C19.4922 4.65243 19.5023 10.4704 19.5195 15.5399ZM33.5719 19.4813C31.2523 19.4813 28.4164 19.4868 25.0766 19.4985L28.8063 15.7688C29.0656 15.5102 29.1102 15.1056 28.9133 14.797C27.2117 12.1282 24.3336 10.3782 21.1969 10.0977C21.1578 10.0852 21.1094 10.0806 21.068 10.0704C21.0625 6.75399 21.0648 3.64306 21.0828 1.64618C26.4461 1.85556 31.4297 4.32821 34.8484 8.51259C34.9883 8.68368 35.1938 8.78759 35.4148 8.79852C35.6359 8.80946 35.8508 8.72743 36.0063 8.5704L39.043 5.53368L39.0438 19.4891C39.0438 19.4923 39.0438 19.4954 39.0445 19.4993C37.7625 19.4876 35.9344 19.4813 33.5719 19.4813Z" fill="url(#paint0_linear_144_6301)"/>
<defs>
<linearGradient id="paint0_linear_144_6301" x1="20.3125" y1="0.986024" x2="20.3125" y2="38.7985" gradientUnits="userSpaceOnUse">
<stop stop-color="#1A6DFF"/>
<stop offset="1" stop-color="#C822FF"/>
</linearGradient>
</defs>
</svg>
