<svg width="30" height="30" viewBox="0 0 30 30" fill="none" xmlns="http://www.w3.org/2000/svg">
<path d="M14.8187 0.5C6.76875 0.5 0.25 7.03333 0.25 15.0833C0.25 23.1333 6.76875 29.6667 14.8187 29.6667C22.8833 29.6667 29.4167 23.1333 29.4167 15.0833C29.4167 7.03333 22.8833 0.5 14.8187 0.5ZM14.8333 26.75C8.3875 26.75 3.16667 21.5292 3.16667 15.0833C3.16667 8.6375 8.3875 3.41667 14.8333 3.41667C21.2792 3.41667 26.5 8.6375 26.5 15.0833C26.5 21.5292 21.2792 26.75 14.8333 26.75Z" fill="#F2F4F3"/>
<path d="M15.5625 7.79138H13.375V16.5414L21.0312 21.1351L22.125 19.3414L15.5625 15.4476V7.79138Z" fill="#F2F4F3"/>
</svg>
